<svg width="78" height="14" viewBox="0 0 78 14" fill="none" xmlns="http://www.w3.org/2000/svg">
<path d="M34 0H33V1H34V0Z" fill="#B9AD99"/>
<path d="M45 0H44V1H45V0Z" fill="#BCAF99"/>
<path d="M33 1H32V2H33V1Z" fill="#B1A695"/>
<path d="M34 1H33V2H34V1Z" fill="#F7E8C1"/>
<path d="M44 1H43V2H44V1Z" fill="#292A2D"/>
<path d="M45 1H44V2H45V1Z" fill="#FAEBC1"/>
<path d="M46 1H45V2H46V1Z" fill="#F7E7BF"/>
<path d="M23 2H22V3H23V2Z" fill="#C9BFAA"/>
<path d="M24 2H23V3H24V2Z" fill="#EEDCB6"/>
<path d="M26 2H25V3H26V2Z" fill="#EADCC5"/>
<path d="M32 2H31V3H32V2Z" fill="#F7E1C1"/>
<path d="M33 2H32V3H33V2Z" fill="#ECE4C5"/>
<path d="M46 2H45V3H46V2Z" fill="#ECE9C7"/>
<path d="M47 2H46V3H47V2Z" fill="#EDE0C9"/>
<path d="M53 2H52V3H53V2Z" fill="#C9BFAA"/>
<path d="M54 2H53V3H54V2Z" fill="#F0E3C1"/>
<path d="M56 2H55V3H56V2Z" fill="#E5DBC6"/>
<path d="M20 3H19V4H20V3Z" fill="#D7A977"/>
<path d="M21 3H20V4H21V3Z" fill="#C9A476"/>
<path d="M22 3H21V4H22V3Z" fill="#F7E5BF"/>
<path d="M23 3H22V4H23V3Z" fill="#F4DEC0"/>
<path d="M24 3H23V4H24V3Z" fill="#F2E3C5"/>
<path d="M25 3H24V4H25V3Z" fill="#EFE1C8"/>
<path d="M26 3H25V4H26V3Z" fill="#F2E2C1"/>
<path d="M27 3H26V4H27V3Z" fill="#F2E6CA"/>
<path d="M32 3H31V4H32V3Z" fill="#E7DABD"/>
<path d="M33 3H32V4H33V3Z" fill="#F3E0BE"/>
<path d="M34 3H33V4H34V3Z" fill="#D1B38B"/>
<path d="M35 3H34V4H35V3Z" fill="#F3E1BD"/>
<path d="M36 3H35V4H36V3Z" fill="#F3DFBC"/>
<path d="M37 3H36V4H37V3Z" fill="#ECE0BC"/>
<path d="M42 3H41V4H42V3Z" fill="#F5E1BE"/>
<path d="M44 3H42V4H44V3Z" fill="#B1A48E"/>
<path d="M45 3H44V4H45V3Z" fill="#D9BA91"/>
<path d="M46 3H45V4H46V3Z" fill="#EFDEC3"/>
<path d="M47 3H46V4H47V3Z" fill="#F3D9B5"/>
<path d="M52 3H51V4H52V3Z" fill="#FAEAC4"/>
<path d="M53 3H52V4H53V3Z" fill="#EFE1BE"/>
<path d="M54 3H53V4H54V3Z" fill="#F3DFC5"/>
<path d="M55 3H54V4H55V3Z" fill="#EFE3C9"/>
<path d="M56 3H55V4H56V3Z" fill="#F2E2C3"/>
<path d="M57 3H56V4H57V3Z" fill="#F6E3BA"/>
<path d="M58 3H57V4H58V3Z" fill="#CCA577"/>
<path d="M59 3H58V4H59V3Z" fill="#D3A77D"/>
<path d="M8 4H7V5H8V4Z" fill="#9A907C"/>
<path d="M18 4H17V5H18V4Z" fill="#D9CAAC"/>
<path d="M19 4H18V5H19V4Z" fill="#EFDEC6"/>
<path d="M21 4H20V5H21V4Z" fill="#CEA370"/>
<path d="M22 4H21V5H22V4Z" fill="#F2E0C5"/>
<path d="M23 4H22V5H23V4Z" fill="#EDDCB2"/>
<path d="M24 4H23V5H24V4Z" fill="#F0E0C1"/>
<path d="M25 4H24V5H25V4Z" fill="#D6BA90"/>
<path d="M26 4H25V5H26V4Z" fill="#F2DFB8"/>
<path d="M27 4H26V5H27V4Z" fill="#EFE1BE"/>
<path d="M28 4H27V5H28V4Z" fill="#F1DFC2"/>
<path d="M29 4H28V5H29V4Z" fill="#F3E4BF"/>
<path d="M32 4H31V5H32V4Z" fill="#D2AF85"/>
<path d="M33 4H32V5H33V4Z" fill="#CEAD81"/>
<path d="M34 4H33V5H34V4Z" fill="#D1AF88"/>
<path d="M35 4H34V5H35V4Z" fill="#CFB088"/>
<path d="M36 4H35V5H36V4Z" fill="#F5DFBD"/>
<path d="M37 4H36V5H37V4Z" fill="#EDDBC0"/>
<path d="M38 4H37V5H38V4Z" fill="#F0E1BC"/>
<path d="M41 4H40V5H41V4Z" fill="#F2DFBF"/>
<path d="M42 4H41V5H42V4Z" fill="#EDDEC2"/>
<path d="M44 4H42V5H44V4Z" fill="#ECDEBC"/>
<path d="M45 4H44V5H45V4Z" fill="#CFB28D"/>
<path d="M46 4H45V5H46V4Z" fill="#D3B380"/>
<path d="M47 4H46V5H47V4Z" fill="#CEAB7F"/>
<path d="M50 4H49V5H50V4Z" fill="#F1E2C4"/>
<path d="M51 4H50V5H51V4Z" fill="#F1DDBB"/>
<path d="M52 4H51V5H52V4Z" fill="#F7E3C7"/>
<path d="M53 4H52V5H53V4Z" fill="#CCA577"/>
<path d="M54 4H53V5H54V4Z" fill="#BB9467"/>
<path d="M55 4H54V5H55V4Z" fill="#F3E2C0"/>
<path d="M56 4H55V5H56V4Z" fill="#F0DDBB"/>
<path d="M57 4H56V5H57V4Z" fill="#F4E1BA"/>
<path d="M58 4H57V5H58V4Z" fill="#D1A16E"/>
<path d="M60 4H59V5H60V4Z" fill="#F2DDBE"/>
<path d="M61 4H60V5H61V4Z" fill="#E6DCBB"/>
<path d="M71 4H70V5H71V4Z" fill="#EADDC0"/>
<path d="M1 5H0V6H1V5Z" fill="#AAA38B"/>
<path d="M2 5H1V6H2V5Z" fill="#A8A18C"/>
<path d="M8 5H7V6H8V5Z" fill="#9E947D"/>
<path d="M9 5H7V6H9V5Z" fill="#F3E9C9"/>
<path d="M10 5H9V6H10V5Z" fill="#AFA38F"/>
<path d="M17 5H16V6H17V5Z" fill="#8F7754"/>
<path d="M18 5H17V6H18V5Z" fill="#DED4B0"/>
<path d="M19 5H18V6H19V5Z" fill="#EFDFC1"/>
<path d="M23 5H22V6H23V5Z" fill="#D4C5B0"/>
<path d="M24 5H23V6H24V5Z" fill="#EDDCB8"/>
<path d="M25 5H24V6H25V5Z" fill="#D5BD8E"/>
<path d="M26 5H25V6H26V5Z" fill="#CBA475"/>
<path d="M27 5H26V6H27V5Z" fill="#F2DEBC"/>
<path d="M28 5H27V6H28V5Z" fill="#F0E2C2"/>
<path d="M29 5H28V6H29V5Z" fill="#F2DEBC"/>
<path d="M30 5H29V6H30V5Z" fill="#ACA28E"/>
<path d="M33 5H32V6H33V5Z" fill="#957857"/>
<path d="M34 5H33V6H34V5Z" fill="#C7A57E"/>
<path d="M35 5H34V6H35V5Z" fill="#CFA97D"/>
<path d="M36 5H35V6H36V5Z" fill="#CFAE7F"/>
<path d="M37 5H36V6H37V5Z" fill="#ECDCBE"/>
<path d="M38 5H37V6H38V5Z" fill="#F4E0C4"/>
<path d="M39 5H38V6H39V5Z" fill="#ACA18A"/>
<path d="M40 5H39V6H40V5Z" fill="#AEA089"/>
<path d="M41 5H40V6H41V5Z" fill="#EFE4C1"/>
<path d="M42 5H41V6H42V5Z" fill="#E9DFBE"/>
<path d="M44 5H42V6H44V5Z" fill="#CFAC7A"/>
<path d="M45 5H44V6H45V5Z" fill="#D3A474"/>
<path d="M46 5H45V6H46V5Z" fill="#C8A271"/>
<path d="M49 5H48V6H49V5Z" fill="#A8A090"/>
<path d="M50 5H49V6H50V5Z" fill="#F5E1C5"/>
<path d="M51 5H50V6H51V5Z" fill="#F2DEC4"/>
<path d="M52 5H51V6H52V5Z" fill="#F2DDC1"/>
<path d="M53 5H52V6H53V5Z" fill="#C9A06D"/>
<path d="M54 5H53V6H54V5Z" fill="#CAA16F"/>
<path d="M55 5H54V6H55V5Z" fill="#F6E2C0"/>
<path d="M56 5H55V6H56V5Z" fill="#EBDCC1"/>
<path d="M60 5H59V6H60V5Z" fill="#F1E1C2"/>
<path d="M61 5H60V6H61V5Z" fill="#EBDEBE"/>
<path d="M62 5H61V6H62V5Z" fill="#927859"/>
<path d="M69 5H68V6H69V5Z" fill="#A79E8C"/>
<path d="M70 5H69V6H70V5Z" fill="#F1E1C2"/>
<path d="M71 5H70V6H71V5Z" fill="#F1E2C4"/>
<path d="M77 5H76V6H77V5Z" fill="#A9A08C"/>
<path d="M78 5H77V6H78V5Z" fill="#A89F8D"/>
<path d="M1 6H0V7H1V6Z" fill="#F5E6C3"/>
<path d="M2 6H1V7H2V6Z" fill="#F4E2C7"/>
<path d="M10 6H9V7H10V6Z" fill="#F7EAC3"/>
<path d="M14 6H10V7H14V6Z" fill="#F1DEBC"/>
<path d="M15 6H14V7H15V6Z" fill="#D9B787"/>
<path d="M16 6H15V7H16V6Z" fill="#CFA273"/>
<path d="M17 6H16V7H17V6Z" fill="#C1976B"/>
<path d="M18 6H17V7H18V6Z" fill="#CCA475"/>
<path d="M19 6H18V7H19V6Z" fill="#312D2B"/>
<path d="M21 6H20V7H21V6Z" fill="#2D2D2C"/>
<path d="M22 6H21V7H22V6Z" fill="#F5E5C6"/>
<path d="M23 6H22V7H23V6Z" fill="#EFE1C1"/>
<path d="M24 6H23V7H24V6Z" fill="#52382C"/>
<path d="M25 6H24V7H25V6Z" fill="#523729"/>
<path d="M26 6H25V7H26V6Z" fill="#52362B"/>
<path d="M28 6H26V7H28V6Z" fill="#513426"/>
<path d="M29 6H28V7H29V6Z" fill="#624130"/>
<path d="M30 6H29V7H30V6Z" fill="#F4E6C4"/>
<path d="M31 6H30V7H31V6Z" fill="#EFE1C6"/>
<path d="M36 6H35V7H36V6Z" fill="#563730"/>
<path d="M37 6H36V7H37V6Z" fill="#CDA576"/>
<path d="M38 6H37V7H38V6Z" fill="#DBC8A7"/>
<path d="M39 6H38V7H39V6Z" fill="#F6E3C1"/>
<path d="M40 6H39V7H40V6Z" fill="#F3DFC3"/>
<path d="M41 6H40V7H41V6Z" fill="#F0DFBB"/>
<path d="M42 6H41V7H42V6Z" fill="#CFA46B"/>
<path d="M43 6H42V7H43V6Z" fill="#533629"/>
<path d="M48 6H47V7H48V6Z" fill="#DACBAF"/>
<path d="M49 6H48V7H49V6Z" fill="#F0DFB5"/>
<path d="M50 6H49V7H50V6Z" fill="#6B4938"/>
<path d="M51 6H50V7H51V6Z" fill="#664234"/>
<path d="M52 6H51V7H52V6Z" fill="#53362C"/>
<path d="M54 6H52V7H54V6Z" fill="#513427"/>
<path d="M55 6H54V7H55V6Z" fill="#4E372A"/>
<path d="M56 6H55V7H56V6Z" fill="#F3DFC3"/>
<path d="M57 6H56V7H57V6Z" fill="#EEE4C4"/>
<path d="M61 6H60V7H61V6Z" fill="#D0AD79"/>
<path d="M62 6H61V7H62V6Z" fill="#D4AB6F"/>
<path d="M64 6H62V7H64V6Z" fill="#CFA171"/>
<path d="M65 6H64V7H65V6Z" fill="#F6E0C2"/>
<path d="M66 6H65V7H66V6Z" fill="#F6E3BC"/>
<path d="M68 6H66V7H68V6Z" fill="#F1DEBC"/>
<path d="M69 6H68V7H69V6Z" fill="#F9EACB"/>
<path d="M77 6H76V7H77V6Z" fill="#F7EACB"/>
<path d="M78 6H77V7H78V6Z" fill="#F4E3BF"/>
<path d="M2 7H1V8H2V7Z" fill="#F2DCC1"/>
<path d="M4 7H2V8H4V7Z" fill="#F1DBC0"/>
<path d="M5 7H4V8H5V7Z" fill="#F3DCBA"/>
<path d="M8 7H5V8H8V7Z" fill="#EFDCBC"/>
<path d="M17 7H15V8H17V7Z" fill="#62442D"/>
<path d="M18 7H17V8H18V7Z" fill="#C59C69"/>
<path d="M19 7H18V8H19V7Z" fill="#D1A07B"/>
<path d="M20 7H19V8H20V7Z" fill="#76583E"/>
<path d="M21 7H20V8H21V7Z" fill="#F7E3C1"/>
<path d="M22 7H21V8H22V7Z" fill="#F3E1C4"/>
<path d="M23 7H22V8H23V7Z" fill="#826350"/>
<path d="M24 7H23V8H24V7Z" fill="#6A4532"/>
<path d="M25 7H24V8H25V7Z" fill="#85573D"/>
<path d="M26 7H25V8H26V7Z" fill="#85583A"/>
<path d="M28 7H26V8H28V7Z" fill="#805640"/>
<path d="M29 7H28V8H29V7Z" fill="#56382B"/>
<path d="M30 7H29V8H30V7Z" fill="#CDA77B"/>
<path d="M31 7H30V8H31V7Z" fill="#D2AC79"/>
<path d="M32 7H31V8H32V7Z" fill="#CEA578"/>
<path d="M34 7H32V8H34V7Z" fill="#CAA273"/>
<path d="M35 7H34V8H35V7Z" fill="#654435"/>
<path d="M36 7H35V8H36V7Z" fill="#674534"/>
<path d="M37 7H36V8H37V7Z" fill="#634231"/>
<path d="M38 7H37V8H38V7Z" fill="#4D3026"/>
<path d="M39 7H38V8H39V7Z" fill="#D6B087"/>
<path d="M40 7H39V8H40V7Z" fill="#D5B18B"/>
<path d="M41 7H40V8H41V7Z" fill="#D0B28D"/>
<path d="M43 7H41V8H43V7Z" fill="#674635"/>
<path d="M44 7H43V8H44V7Z" fill="#664536"/>
<path d="M45 7H44V8H45V7Z" fill="#CFAD7B"/>
<path d="M46 7H45V8H46V7Z" fill="#CEA37C"/>
<path d="M47 7H46V8H47V7Z" fill="#CBA374"/>
<path d="M48 7H47V8H48V7Z" fill="#CDAA78"/>
<path d="M49 7H48V8H49V7Z" fill="#CDAB81"/>
<path d="M50 7H49V8H50V7Z" fill="#7B5947"/>
<path d="M51 7H50V8H51V7Z" fill="#8B563F"/>
<path d="M52 7H51V8H52V7Z" fill="#865A3B"/>
<path d="M54 7H52V8H54V7Z" fill="#805640"/>
<path d="M55 7H54V8H55V7Z" fill="#764C34"/>
<path d="M56 7H55V8H56V7Z" fill="#775645"/>
<path d="M57 7H56V8H57V7Z" fill="#F6E1C2"/>
<path d="M58 7H57V8H58V7Z" fill="#F4E2B9"/>
<path d="M59 7H58V8H59V7Z" fill="#55382B"/>
<path d="M60 7H59V8H60V7Z" fill="#D4A86A"/>
<path d="M61 7H60V8H61V7Z" fill="#C7A378"/>
<path d="M72 7H71V8H72V7Z" fill="#F0E0B5"/>
<path d="M73 7H72V8H73V7Z" fill="#CFC3A9"/>
<path d="M74 7H73V8H74V7Z" fill="#EDDAB8"/>
<path d="M76 7H74V8H76V7Z" fill="#F1DBC0"/>
<path d="M77 7H76V8H77V7Z" fill="#F5E0C4"/>
<path d="M2 8H1V9H2V8Z" fill="#F0E0B9"/>
<path d="M4 8H2V9H4V8Z" fill="#EFDFB8"/>
<path d="M5 8H4V9H5V8Z" fill="#EEDDB9"/>
<path d="M6 8H5V9H6V8Z" fill="#F6DFBB"/>
<path d="M8 8H6V9H8V8Z" fill="#EFDCBA"/>
<path d="M9 8H8V9H9V8Z" fill="#F5E5BE"/>
<path d="M10 8H9V9H10V8Z" fill="#A06840"/>
<path d="M11 8H10V9H11V8Z" fill="#A36942"/>
<path d="M12 8H11V9H12V8Z" fill="#A36E45"/>
<path d="M13 8H12V9H13V8Z" fill="#83563F"/>
<path d="M15 8H13V9H15V8Z" fill="#83583C"/>
<path d="M16 8H15V9H16V8Z" fill="#82553E"/>
<path d="M17 8H16V9H17V8Z" fill="#84563D"/>
<path d="M18 8H17V9H18V8Z" fill="#BF9C62"/>
<path d="M19 8H18V9H19V8Z" fill="#CBA56F"/>
<path d="M20 8H19V9H20V8Z" fill="#815C41"/>
<path d="M21 8H20V9H21V8Z" fill="#ECDEB9"/>
<path d="M22 8H21V9H22V8Z" fill="#654433"/>
<path d="M23 8H22V9H23V8Z" fill="#68422C"/>
<path d="M24 8H23V9H24V8Z" fill="#63453C"/>
<path d="M25 8H24V9H25V8Z" fill="#825536"/>
<path d="M26 8H25V9H26V8Z" fill="#81583C"/>
<path d="M28 8H26V9H28V8Z" fill="#82573B"/>
<path d="M29 8H28V9H29V8Z" fill="#A06A49"/>
<path d="M30 8H29V9H30V8Z" fill="#C8A474"/>
<path d="M31 8H30V9H31V8Z" fill="#4F3426"/>
<path d="M32 8H31V9H32V8Z" fill="#503326"/>
<path d="M34 8H32V9H34V8Z" fill="#C8A26C"/>
<path d="M35 8H34V9H35V8Z" fill="#78563B"/>
<path d="M36 8H35V9H36V8Z" fill="#7C523A"/>
<path d="M37 8H36V9H37V8Z" fill="#8B533A"/>
<path d="M38 8H37V9H38V8Z" fill="#9F815D"/>
<path d="M39 8H38V9H39V8Z" fill="#CBAC83"/>
<path d="M40 8H39V9H40V8Z" fill="#D0AA7E"/>
<path d="M41 8H40V9H41V8Z" fill="#D1A77A"/>
<path d="M42 8H41V9H42V8Z" fill="#82553E"/>
<path d="M43 8H42V9H43V8Z" fill="#694534"/>
<path d="M44 8H43V9H44V8Z" fill="#664536"/>
<path d="M45 8H44V9H45V8Z" fill="#CCA371"/>
<path d="M46 8H45V9H46V8Z" fill="#C8A26F"/>
<path d="M47 8H46V9H47V8Z" fill="#503325"/>
<path d="M48 8H47V9H48V8Z" fill="#523527"/>
<path d="M49 8H48V9H49V8Z" fill="#CEA578"/>
<path d="M50 8H49V9H50V8Z" fill="#AA6A3C"/>
<path d="M51 8H50V9H51V8Z" fill="#8F6545"/>
<path d="M52 8H51V9H52V8Z" fill="#8B5646"/>
<path d="M54 8H52V9H54V8Z" fill="#82573C"/>
<path d="M55 8H54V9H55V8Z" fill="#704839"/>
<path d="M56 8H55V9H56V8Z" fill="#6E4438"/>
<path d="M57 8H56V9H57V8Z" fill="#F3DDBE"/>
<path d="M58 8H57V9H58V8Z" fill="#F3E1BD"/>
<path d="M59 8H58V9H59V8Z" fill="#6E4731"/>
<path d="M60 8H59V9H60V8Z" fill="#CAA775"/>
<path d="M61 8H60V9H61V8Z" fill="#BF9A71"/>
<path d="M62 8H61V9H62V8Z" fill="#875741"/>
<path d="M66 8H62V9H66V8Z" fill="#83583C"/>
<path d="M67 8H66V9H67V8Z" fill="#A36C44"/>
<path d="M68 8H67V9H68V8Z" fill="#845534"/>
<path d="M69 8H68V9H69V8Z" fill="#A36941"/>
<path d="M70 8H69V9H70V8Z" fill="#A26840"/>
<path d="M71 8H70V9H71V8Z" fill="#ECE1BD"/>
<path d="M72 8H71V9H72V8Z" fill="#EFE4C0"/>
<path d="M73 8H72V9H73V8Z" fill="#F2E1BF"/>
<path d="M74 8H73V9H74V8Z" fill="#EDE0C1"/>
<path d="M76 8H74V9H76V8Z" fill="#EFDFB8"/>
<path d="M77 8H76V9H77V8Z" fill="#F0DDC4"/>
<path d="M3 9H2V10H3V9Z" fill="#573F30"/>
<path d="M4 9H3V10H4V9Z" fill="#714A31"/>
<path d="M5 9H4V10H5V9Z" fill="#8B563E"/>
<path d="M6 9H5V10H6V9Z" fill="#7F5744"/>
<path d="M8 9H6V10H8V9Z" fill="#4F3328"/>
<path d="M9 9H8V10H9V9Z" fill="#A26B43"/>
<path d="M10 9H9V10H10V9Z" fill="#A26B44"/>
<path d="M11 9H10V10H11V9Z" fill="#A16A43"/>
<path d="M12 9H11V10H12V9Z" fill="#A06B42"/>
<path d="M14 9H12V10H14V9Z" fill="#835637"/>
<path d="M16 9H14V10H16V9Z" fill="#845738"/>
<path d="M17 9H16V10H17V9Z" fill="#7E533A"/>
<path d="M18 9H17V10H18V9Z" fill="#825838"/>
<path d="M19 9H18V10H19V9Z" fill="#80593F"/>
<path d="M20 9H19V10H20V9Z" fill="#A06B42"/>
<path d="M21 9H20V10H21V9Z" fill="#A56B43"/>
<path d="M22 9H21V10H22V9Z" fill="#A8673E"/>
<path d="M23 9H22V10H23V9Z" fill="#362822"/>
<path d="M28 9H27V10H28V9Z" fill="#875937"/>
<path d="M29 9H28V10H29V9Z" fill="#A86D43"/>
<path d="M30 9H29V10H30V9Z" fill="#A16C42"/>
<path d="M31 9H30V10H31V9Z" fill="#533628"/>
<path d="M32 9H31V10H32V9Z" fill="#A16940"/>
<path d="M34 9H32V10H34V9Z" fill="#83553D"/>
<path d="M35 9H34V10H35V9Z" fill="#875940"/>
<path d="M36 9H35V10H36V9Z" fill="#7D5644"/>
<path d="M37 9H36V10H37V9Z" fill="#87543A"/>
<path d="M38 9H37V10H38V9Z" fill="#734E2B"/>
<path d="M39 9H38V10H39V9Z" fill="#A36941"/>
<path d="M40 9H39V10H40V9Z" fill="#A26C47"/>
<path d="M41 9H40V10H41V9Z" fill="#A46C43"/>
<path d="M42 9H41V10H42V9Z" fill="#805744"/>
<path d="M43 9H42V10H43V9Z" fill="#83573C"/>
<path d="M44 9H43V10H44V9Z" fill="#805A44"/>
<path d="M45 9H44V10H45V9Z" fill="#4C3529"/>
<path d="M46 9H45V10H46V9Z" fill="#83553D"/>
<path d="M47 9H46V10H47V9Z" fill="#A16A43"/>
<path d="M48 9H47V10H48V9Z" fill="#92603D"/>
<path d="M49 9H48V10H49V9Z" fill="#A1683B"/>
<path d="M50 9H49V10H50V9Z" fill="#A66B40"/>
<path d="M51 9H50V10H51V9Z" fill="#8B6242"/>
<path d="M56 9H55V10H56V9Z" fill="#71483D"/>
<path d="M57 9H56V10H57V9Z" fill="#9E6B49"/>
<path d="M58 9H57V10H58V9Z" fill="#A26841"/>
<path d="M59 9H58V10H59V9Z" fill="#98623F"/>
<path d="M60 9H59V10H60V9Z" fill="#966241"/>
<path d="M61 9H60V10H61V9Z" fill="#7D5942"/>
<path d="M62 9H61V10H62V9Z" fill="#88573F"/>
<path d="M66 9H62V10H66V9Z" fill="#845738"/>
<path d="M67 9H66V10H67V9Z" fill="#A06A45"/>
<path d="M68 9H67V10H68V9Z" fill="#A16A43"/>
<path d="M70 9H68V10H70V9Z" fill="#A26A42"/>
<path d="M71 9H70V10H71V9Z" fill="#A36C45"/>
<path d="M72 9H71V10H72V9Z" fill="#4E332B"/>
<path d="M73 9H72V10H73V9Z" fill="#543D2D"/>
<path d="M74 9H73V10H74V9Z" fill="#865A46"/>
<path d="M75 9H74V10H75V9Z" fill="#764934"/>
<path d="M76 9H75V10H76V9Z" fill="#6B4833"/>
<path d="M2 10H1V11H2V10Z" fill="#6D4731"/>
<path d="M3 10H2V11H3V10Z" fill="#714E39"/>
<path d="M4 10H3V11H4V10Z" fill="#724839"/>
<path d="M5 10H4V11H5V10Z" fill="#85573E"/>
<path d="M6 10H5V11H6V10Z" fill="#7D5A43"/>
<path d="M18 10H17V11H18V10Z" fill="#7E5536"/>
<path d="M19 10H18V11H19V10Z" fill="#83573B"/>
<path d="M20 10H19V11H20V10Z" fill="#A26C45"/>
<path d="M21 10H20V11H21V10Z" fill="#A46941"/>
<path d="M22 10H21V11H22V10Z" fill="#A26E4A"/>
<path d="M23 10H22V11H23V10Z" fill="#4A372A"/>
<path d="M28 10H27V11H28V10Z" fill="#5F462A"/>
<path d="M29 10H28V11H29V10Z" fill="#6E4D35"/>
<path d="M30 10H29V11H30V10Z" fill="#AB6A49"/>
<path d="M31 10H30V11H31V10Z" fill="#A06C45"/>
<path d="M32 10H31V11H32V10Z" fill="#9F6D48"/>
<path d="M34 10H32V11H34V10Z" fill="#83553B"/>
<path d="M35 10H34V11H35V10Z" fill="#825638"/>
<path d="M36 10H35V11H36V10Z" fill="#855841"/>
<path d="M37 10H36V11H37V10Z" fill="#5C3F39"/>
<path d="M38 10H37V11H38V10Z" fill="#613F40"/>
<path d="M39 10H38V11H39V10Z" fill="#67483C"/>
<path d="M40 10H39V11H40V10Z" fill="#6A473A"/>
<path d="M41 10H40V11H41V10Z" fill="#644A3E"/>
<path d="M42 10H41V11H42V10Z" fill="#604135"/>
<path d="M43 10H42V11H43V10Z" fill="#5A3D30"/>
<path d="M44 10H43V11H44V10Z" fill="#7F5C45"/>
<path d="M45 10H44V11H45V10Z" fill="#86583E"/>
<path d="M46 10H45V11H46V10Z" fill="#84563C"/>
<path d="M47 10H46V11H47V10Z" fill="#9D6A48"/>
<path d="M48 10H47V11H48V10Z" fill="#A76E47"/>
<path d="M49 10H48V11H49V10Z" fill="#A87045"/>
<path d="M50 10H49V11H50V10Z" fill="#6F4935"/>
<path d="M51 10H50V11H51V10Z" fill="#5E4436"/>
<path d="M56 10H55V11H56V10Z" fill="#4F3B2E"/>
<path d="M57 10H56V11H57V10Z" fill="#A06C48"/>
<path d="M58 10H57V11H58V10Z" fill="#A46E42"/>
<path d="M59 10H58V11H59V10Z" fill="#A1693D"/>
<path d="M60 10H59V11H60V10Z" fill="#96633F"/>
<path d="M61 10H60V11H61V10Z" fill="#815642"/>
<path d="M73 10H72V11H73V10Z" fill="#583C31"/>
<path d="M74 10H73V11H74V10Z" fill="#885D43"/>
<path d="M75 10H74V11H75V10Z" fill="#6E4F3C"/>
<path d="M76 10H75V11H76V10Z" fill="#6F4D32"/>
<path d="M77 10H76V11H77V10Z" fill="#704D2E"/>
<path d="M2 11H1V12H2V11Z" fill="#A76948"/>
<path d="M3 11H2V12H3V11Z" fill="#A76E48"/>
<path d="M4 11H3V12H4V11Z" fill="#322329"/>
<path d="M22 11H21V12H22V11Z" fill="#6B4E38"/>
<path d="M23 11H22V12H23V11Z" fill="#6E4B36"/>
<path d="M28 11H27V12H28V11Z" fill="#865943"/>
<path d="M29 11H28V12H29V11Z" fill="#AC6C50"/>
<path d="M30 11H29V12H30V11Z" fill="#6F4634"/>
<path d="M32 11H31V12H32V11Z" fill="#9E714E"/>
<path d="M33 11H32V12H33V11Z" fill="#A26E4A"/>
<path d="M37 11H36V12H37V11Z" fill="#88533B"/>
<path d="M38 11H37V12H38V11Z" fill="#8A573E"/>
<path d="M41 11H40V12H41V11Z" fill="#855A46"/>
<path d="M42 11H41V12H42V11Z" fill="#8C573D"/>
<path d="M46 11H45V12H46V11Z" fill="#9B7053"/>
<path d="M47 11H46V12H47V11Z" fill="#A46E41"/>
<path d="M49 11H48V12H49V11Z" fill="#272931"/>
<path d="M50 11H49V12H50V11Z" fill="#A3724C"/>
<path d="M51 11H50V12H51V11Z" fill="#976745"/>
<path d="M56 11H55V12H56V11Z" fill="#6A4A35"/>
<path d="M57 11H56V12H57V11Z" fill="#704A34"/>
<path d="M75 11H74V12H75V11Z" fill="#29262F"/>
<path d="M76 11H75V12H76V11Z" fill="#AC7148"/>
<path d="M77 11H76V12H77V11Z" fill="#A56B45"/>
<path d="M78 11H77V12H78V11Z" fill="#2C282F"/>
<path d="M2 12H1V13H2V12Z" fill="#43331D"/>
<path d="M32 12H31V13H32V12Z" fill="#372D2B"/>
<path d="M33 12H32V13H33V12Z" fill="#563C31"/>
<path d="M34 12H33V13H34V12Z" fill="#6B4B36"/>
<path d="M35 12H34V13H35V12Z" fill="#87593E"/>
<path d="M36 12H35V13H36V12Z" fill="#A5693D"/>
<path d="M37 12H36V13H37V12Z" fill="#A86D3D"/>
<path d="M41 12H40V13H41V12Z" fill="#422D28"/>
<path d="M42 12H41V13H42V12Z" fill="#A16D43"/>
<path d="M43 12H42V13H43V12Z" fill="#A76F45"/>
<path d="M44 12H43V13H44V12Z" fill="#865940"/>
<path d="M45 12H44V13H45V12Z" fill="#764B39"/>
<path d="M46 12H45V13H46V12Z" fill="#694537"/>
<path d="M47 12H46V13H47V12Z" fill="#4B3626"/>
<path d="M50 12H49V13H50V12Z" fill="#473625"/>
<path d="M51 12H50V13H51V12Z" fill="#473127"/>
<path d="M77 12H76V13H77V12Z" fill="#4B3420"/>
<path d="M33 13H32V14H33V13Z" fill="#523C33"/>
<path d="M34 13H33V14H34V13Z" fill="#66473B"/>
<path d="M35 13H34V14H35V13Z" fill="#86583E"/>
<path d="M36 13H35V14H36V13Z" fill="#976B4B"/>
<path d="M43 13H42V14H43V13Z" fill="#5E4633"/>
<path d="M44 13H43V14H44V13Z" fill="#8B583B"/>
<path d="M45 13H44V14H45V13Z" fill="#704A3D"/>
<path d="M46 13H45V14H46V13Z" fill="#664336"/>
</svg>
